<?xml version="1.0" standalone="no"?><!DOCTYPE svg PUBLIC "-//W3C//DTD SVG 1.1//EN" "http://www.w3.org/Graphics/SVG/1.1/DTD/svg11.dtd"><svg t="1660213324329" class="icon" viewBox="0 0 1024 1024" version="1.1" xmlns="http://www.w3.org/2000/svg" p-id="1874" xmlns:xlink="http://www.w3.org/1999/xlink" width="200" height="200"><defs><style type="text/css">@font-face { font-family: feedback-iconfont; src: url("//at.alicdn.com/t/font_1031158_u69w8yhxdu.woff2?t=1630033759944") format("woff2"), url("//at.alicdn.com/t/font_1031158_u69w8yhxdu.woff?t=1630033759944") format("woff"), url("//at.alicdn.com/t/font_1031158_u69w8yhxdu.ttf?t=1630033759944") format("truetype"); }
</style></defs><path d="M64 800H53.76a31.36 31.36 0 0 1-19.84-40.32l128-384A32.64 32.64 0 0 1 192 352a32.64 32.64 0 0 1 30.08 21.76l128 384a32 32 0 1 1-60.16 20.48L192 485.12l-97.92 293.12a30.72 30.72 0 0 1-30.08 21.76z" fill="#3399FF" p-id="1875"></path><path d="M256 672H128a32 32 0 0 1 0-64h128a32 32 0 0 1 0 64zM768 768h-96a32 32 0 0 1-32-32v-192a32 32 0 0 1 32-32H768a128 128 0 0 1 0 256z m-64-64h64a64 64 0 0 0 0-128h-64z" fill="#3399FF" p-id="1876"></path><path d="M832 960h-160a32 32 0 0 1-32-32v-192a32 32 0 0 1 32-32H832a128 128 0 0 1 0 256z m-128-64h128a64 64 0 0 0 0-128h-128zM773.76 434.56a32 32 0 0 1-21.12-7.68l-96-85.12a31.36 31.36 0 0 1 0-44.8 32.64 32.64 0 0 1 45.44 0l71.68 64 64-71.68a31.36 31.36 0 0 1 44.8 0 32.64 32.64 0 0 1 0 45.44l-84.48 96a33.92 33.92 0 0 1-22.4 10.88z" fill="#3399FF" p-id="1877"></path><path d="M768 384a32 32 0 0 1-32-32 224 224 0 0 0-432-83.84 32 32 0 0 1-58.88-24.32A288 288 0 0 1 800 352a32 32 0 0 1-32 32z" fill="#3399FF" p-id="1878"></path></svg>