<?xml version="1.0" standalone="no"?><!DOCTYPE svg PUBLIC "-//W3C//DTD SVG 1.1//EN" "http://www.w3.org/Graphics/SVG/1.1/DTD/svg11.dtd"><svg t="1660880548923" class="icon" viewBox="0 0 1024 1024" version="1.1" xmlns="http://www.w3.org/2000/svg" p-id="5471" xmlns:xlink="http://www.w3.org/1999/xlink" width="200" height="200"><defs><style type="text/css">@font-face { font-family: feedback-iconfont; src: url("//at.alicdn.com/t/font_1031158_u69w8yhxdu.woff2?t=1630033759944") format("woff2"), url("//at.alicdn.com/t/font_1031158_u69w8yhxdu.woff?t=1630033759944") format("woff"), url("//at.alicdn.com/t/font_1031158_u69w8yhxdu.ttf?t=1630033759944") format("truetype"); }
</style></defs><path d="M1016.477963 461.351616q0 17.049951-6.519099 32.094025t-17.55142 26.076396-26.076396 18.052889-32.094025 7.020568l-349.022527 0q34.099902 0 58.170421 22.064643t24.070519 55.161606-24.070519 57.167483-58.170421 24.070519l-31.091087 0q17.049951 0 32.094025 6.519099t26.577865 17.049951 18.052889 25.073457 6.519099 30.589618q0 17.049951-9.527914 31.592556t-25.073457 25.574927-36.105779 17.55142-42.624878 6.519099q35.10284 0 56.164545 23.56905t21.061704 57.668952q0 21.061704-12.03526 35.60431t-30.088149 24.571988-38.613124 14.542605-37.610186 4.513222l-55.161606 0-248.728697 0q-33.096964 0-61.680705-11.032321t-49.143976-30.589618-32.595495-47.639569-12.03526-63.185113l0-315.925563q0-20.058766 1.504407-40.619001t7.522037-38.613124 18.554358-33.096964 34.601371-24.070519q31.091087-13.038198 74.217434-43.627816t82.742409-71.710088 67.698335-91.267385 28.082272-102.299706q1.002938-30.088149 8.524976-51.149853t19.055828-34.099902 25.574927-19.055828 28.082272-6.01763q37.108717 0 62.182174 23.067581t36.105779 74.217434q2.005877 46.135162-5.014691 94.2762-6.01763 42.123408-22.064643 92.771792t-48.141038 99.79236l491.439765 0q34.099902 0 58.170421 21.563173t24.070519 55.663075z" p-id="5472" fill="#ffffff"></path></svg>