<?xml version="1.0" standalone="no"?><!DOCTYPE svg PUBLIC "-//W3C//DTD SVG 1.1//EN" "http://www.w3.org/Graphics/SVG/1.1/DTD/svg11.dtd"><svg class="icon" width="200px" height="200.00px" viewBox="0 0 1024 1024" version="1.1" xmlns="http://www.w3.org/2000/svg">
<path fill="#3399FF" d="M524.288 245.76c-4.096-4.096-8.192-4.096-12.288-4.096S499.712 241.664 499.712 245.76l-81.92 81.92C413.696 327.68 409.6 331.776 409.6 339.968c0 12.288 8.192 20.48 20.48 20.48 4.096 0 12.288-4.096 12.288-4.096L491.52 307.2l0 233.472c0 12.288 8.192 20.48 20.48 20.48 12.288 0 20.48-8.192 20.48-20.48L532.48 307.2l45.056 45.056c4.096 4.096 8.192 4.096 12.288 4.096 12.288 0 20.48-8.192 20.48-20.48 0-4.096-4.096-12.288-4.096-12.288L524.288 245.76zM872.448 77.824 151.552 77.824c-45.056 0-81.92 36.864-81.92 81.92l0 602.112c0 45.056 36.864 81.92 81.92 81.92l282.624 0 0 81.92L372.736 925.696c-12.288 0-20.48 8.192-20.48 20.48 0 12.288 8.192 20.48 20.48 20.48l61.44 0 159.744 0 61.44 0c12.288 0 20.48-8.192 20.48-20.48 0-12.288-8.192-20.48-20.48-20.48l-61.44 0 0-81.92 282.624 0c45.056 0 81.92-36.864 81.92-81.92L958.464 159.744C954.368 114.688 917.504 77.824 872.448 77.824zM552.96 921.6l-81.92 0 0-81.92 81.92 0L552.96 921.6zM913.408 761.856c0 20.48-16.384 40.96-40.96 40.96l-282.624 0-159.744 0L151.552 802.816c-20.48 0-40.96-16.384-40.96-40.96l0-40.96 802.816 0L913.408 761.856zM913.408 679.936 110.592 679.936 110.592 159.744c0-20.48 16.384-40.96 40.96-40.96l720.896 0c20.48 0 40.96 16.384 40.96 40.96L913.408 679.936z" /></svg>