<?xml version="1.0" standalone="no"?><!DOCTYPE svg PUBLIC "-//W3C//DTD SVG 1.1//EN" "http://www.w3.org/Graphics/SVG/1.1/DTD/svg11.dtd"><svg class="icon" width="200px" height="200.00px" viewBox="0 0 1024 1024" version="1.1" xmlns="http://www.w3.org/2000/svg">
<path fill="#ffffff" d="M7.656814 426.432877c11.221918-72.942466 42.082192-143.079452 84.164383-201.994521h-2.805479c8.416438-14.027397 16.832877-25.249315 25.249315-36.471233h2.80548C195.623937 92.580822 310.648595 28.054795 434.089691 8.416438v-2.805479c5.610959 0 14.027397 0 19.638356-2.80548 8.416438 0 16.832877-2.805479 22.443835-2.805479h33.665754C795.99654 14.027397 1020.434896 246.882192 1009.212978 524.624658c-8.416438 266.520548-227.243836 479.736986-499.375342 488.153424h-5.610959c-16.832877 0-36.471233 0-53.30411-2.805479v-2.80548c-140.273973-16.832877-263.715068-89.775342-347.879452-199.189041-8.416438-11.221918-16.832877-22.443836-22.443835-33.665753C44.128047 715.39726 18.878732 650.871233 7.656814 583.539726c0-5.610959 0-8.416438-2.80548-14.027397-5.610959-44.887671-5.610959-92.580822 0-137.468493 2.805479 2.805479 2.805479-2.805479 2.80548-5.610959z m89.775342 53.304109h187.967124c0-61.720548 8.416438-120.635616 22.443835-179.550685C262.955444 291.769863 220.873252 277.742466 178.79106 263.715068c-47.693151 61.720548-75.747945 137.468493-81.358904 216.021918zM206.845855 230.049315c36.471233 14.027397 72.942466 22.443836 109.413699 30.860274 14.027397-47.693151 30.860274-92.580822 50.49863-137.468493C307.843115 145.884932 251.733526 182.356164 206.845855 230.049315zM324.675992 519.013699c0 58.915068 8.416438 115.024658 19.638356 171.134246 112.219178-19.638356 227.243836-16.832877 339.463014 2.80548 14.027397-58.915068 19.638356-117.830137 22.443835-176.745206l-381.545205 2.80548z m384.350685-39.276713c0-58.915068-8.416438-117.830137-22.443836-176.745205-112.219178 22.443836-227.243836 22.443836-339.463013 2.805479-14.027397 56.109589-19.638356 115.024658-22.443836 171.134247h384.350685zM515.448595 95.386301c-30.860274 0-61.720548 2.805479-92.580822 11.221918-28.054795 50.49863-50.49863 106.608219-67.331507 162.717808 106.608219 16.832877 213.216438 16.832877 319.824657-2.805479-14.027397-53.30411-36.471233-106.608219-61.720547-157.106849-30.860274-8.416438-64.526027-14.027397-98.191781-14.027398z m151.49589 28.054795c19.638356 42.082192 36.471233 86.969863 47.693151 131.857534 36.471233-8.416438 70.136986-19.638356 106.608219-33.665753-44.887671-42.082192-95.386301-75.747945-154.30137-98.191781z m182.356164 134.663014c-39.276712 16.832877-81.358904 28.054795-123.441095 39.276712 14.027397 61.720548 19.638356 120.635616 22.443835 182.356164H936.270513c-5.610959-81.358904-36.471233-159.912329-86.969864-221.632876zM936.270513 519.013699h-190.772603c0 61.720548-8.416438 123.441096-22.443836 182.356164 47.693151 11.221918 92.580822 25.249315 134.663014 42.082192 50.49863-64.526027 78.553425-143.079452 78.553425-224.438356z m-100.997261 260.909589c-39.276712-16.832877-78.553425-28.054795-117.830137-36.471233-14.027397 56.109589-33.665753 106.608219-61.720548 159.912329 70.136986-28.054795 131.857534-70.136986 179.550685-123.441096zM515.448595 923.00274c28.054795 0 56.109589-2.805479 84.164383-8.416439 33.665753-56.109589 58.915068-117.830137 78.553425-182.356164-106.608219-19.638356-216.021918-22.443836-322.630137-2.805479 19.638356 64.526027 44.887671 129.052055 81.358904 185.161643 25.249315 5.610959 53.30411 8.416438 78.553425 8.416439z m-134.663014-22.443836c-28.054795-53.30411-47.693151-106.608219-64.526027-162.717808-42.082192 8.416438-84.164384 19.638356-123.441096 36.471233 50.49863 56.109589 115.024658 100.99726 187.967123 126.246575z m-213.216438-162.717808c44.887671-16.832877 92.580822-30.860274 140.273972-42.082192-14.027397-58.915068-19.638356-117.830137-22.443835-179.550685H94.626677c2.805479 81.358904 28.054795 157.106849 72.942466 221.632877z"  /></svg>