<?xml version="1.0" standalone="no"?><!DOCTYPE svg PUBLIC "-//W3C//DTD SVG 1.1//EN" "http://www.w3.org/Graphics/SVG/1.1/DTD/svg11.dtd"><svg class="icon" width="200px" height="200.00px" viewBox="0 0 1024 1024" version="1.1" xmlns="http://www.w3.org/2000/svg"><path fill="#3399ff" d="M918.6 602.8l-6-6c-14.4-8.5-25.9-20.4-34.3-34.3-28.4-47.8-12.9-108.9 34.3-137.8l6-6c19.4-11.9 26.9-36.8 17.4-57.2l-86-149.2c-7.5-12.4-19.9-20.9-34.3-22.9-8-1-16.4 1-22.9 6l-6 6c-15.4 9-33.8 13.4-51.7 11.4-27.4 0-53.7-10.4-73.1-29.8-19.4-19.4-30.3-45.8-29.8-73.1v-6c2.5-10.4 0-20.9-6.5-28.8-7-8-17.4-11.9-27.9-10.9H425.7c-10.4 0-20.9 4.5-28.8 11.4-6 11.4-11.4 17.4-11.4 28.8v6c-1 17.9-5 35.3-11.4 51.7-18.4 33.8-53.2 55.7-91.5 57.2-17.9-1-35.3-5-51.7-11.4l-6-11.4c-8.5-6-19.9-6-28.8 0-11.4 0-17.4 11.4-22.9 17.4L87 363.1c-6 9.9-7.5 21.4-4 32.3 3.5 10.9 10.9 19.9 21.4 24.9l6 6c24.4 13.4 42.8 36.3 50.2 63.2 7.5 26.9 4 55.7-9.9 80.1-10.4 15.9-23.9 29.8-40.3 40.3l-6 6C87 629.2 80.5 652.1 87 673l86 149.2c7.5 12.4 19.9 20.9 34.3 22.9 8 0 15.9-2 22.9-6l6-6c16.4-6.5 33.8-10.4 51.7-11.4 25.9 0 50.7 9.9 68.6 28.8 17.4 6 28.8 34.3 28.8 63.2v6c-0.5 10.9 4 20.9 11.4 28.8 7.5 7.5 17.9 11.9 28.8 11.4h172.1c10.9 0.5 20.9-4 28.8-11.4 7.5-7.5 11.9-17.9 11.4-28.8v-6c1-17.9 5-35.3 11.4-51.7 10.4-15.9 23.9-29.8 40.3-40.3 15.4-9 33.8-13.4 51.7-11.4 17.9 1 35.3 5 51.7 11.4l6 6c9 4 18.9 6 28.8 6 10.4-4.5 18.4-12.9 22.9-22.9l86-149.2c6-9.9 7.5-21.4 4-32.3-4.1-12.5-11.5-21.5-22-26.5zM804.2 780.4l-6-6c-42.8-22.9-94.5-22.9-137.8 0-22.4 10.9-40.3 29.3-51.7 51.7-10.9 21.4-16.9 44.8-17.4 68.6v6H431.7v-6c-2-35.8-16.4-70.1-40.3-97.5-43.8-44.3-111.9-53.7-166.1-22.9l-6 6L139.2 637l6-6c31.3-19.4 53.7-50.2 63.2-86 8.5-35.3 2.5-72.6-17.4-103-10.4-20.9-26.4-38.8-45.8-51.7h-6L219.3 247h6c30.3 18.9 66.7 24.9 101.5 15.9 34.8-8.5 64.2-30.8 82.1-61.7 10.9-21.4 16.9-44.8 17.4-68.6v-11.4h166.1c-1.5 37.3 11.9 74.1 37.8 101 25.9 26.9 62.2 42.3 99.5 42.3 23.9 0 47.8-6 68.6-17.4l6-6 80.1 143.3-6 6c-63.7 40.3-86 122.4-51.7 189 10.9 22.4 29.3 40.3 51.7 51.7l6 6-80.2 143.3zM511.8 281.5c-57.2-1-112.4 19.4-154.7 57.2-47.8 44.8-76.6 106.4-80.1 172.1-1.5 128.3 101 233.3 229.3 234.8s233.3-101 234.8-229.3c1.5-61.7-21.9-121.4-65.2-165.6s-102.5-69.2-164.1-69.2z m-6 406.9c-95-5-170.1-82.6-172.1-177.6 5.5-49.7 27.9-96.5 63.2-131.8 29.3-23.9 65.2-37.8 103-40.3h11.4c46.8 0 91 18.9 123.9 52.2 32.3 33.3 49.7 78.6 48.2 125.3-4.5 95.6-82.1 170.7-177.6 172.2z" /></svg>