<?xml version="1.0" standalone="no"?><!DOCTYPE svg PUBLIC "-//W3C//DTD SVG 1.1//EN" "http://www.w3.org/Graphics/SVG/1.1/DTD/svg11.dtd"><svg class="icon" width="200px" height="200.00px" viewBox="0 0 1024 1024" version="1.1" xmlns="http://www.w3.org/2000/svg"><path fill="#ffffff" d="M849.771 968H98.345c-18.401 0-34.49-7.481-44.142-20.524-8.077-10.915-10.735-24.594-7.453-37.9l88.623-532.197c0.231-1.386 0.553-2.756 0.964-4.1 7.49-24.498 33.94-42.279 62.892-42.279h761.426c18.4 0 34.489 7.481 44.142 20.525 8.148 11.012 10.781 24.839 7.363 38.257l-98.635 532.412a32.097 32.097 0 0 1-0.863 3.527C905.172 950.219 878.723 968 849.771 968z m-737.21-64h737.21c0.698 0 1.441-0.157 2.105-0.374L946.104 395H199.229c-0.649 0-1.336 0.136-1.964 0.329L112.561 904z"  /><path fill="#ffffff" d="M857.713 968H96.287C64.147 968 38 943.186 38 912.684V128c0-33.635 27.365-61 61-61h340c33.635 0 61 27.365 61 61v54h357.713c32.14 0 58.287 24.815 58.287 55.316V344.1c0 17.673-14.327 32-32 32s-32-14.327-32-32V246H468c-17.673 0-32-14.327-32-32v-83H102v773h755.713c17.673 0 32 14.327 32 32s-14.327 32-32 32z"  /></svg>